<mxfile host="app.diagrams.net" modified="2024-04-06T12:29:36.441Z" agent="Mozilla/5.0 (Windows NT 10.0; Win64; x64) AppleWebKit/537.36 (KHTML, like Gecko) Chrome/122.0.0.0 Safari/537.36 OPR/108.0.0.0" etag="9FUByUbCYUq4BSrdtKMW" version="24.0.8" type="device">
  <diagram id="C5RBs43oDa-KdzZeNtuy" name="Page-1">
    <mxGraphModel dx="1300" dy="716" grid="1" gridSize="10" guides="1" tooltips="1" connect="1" arrows="1" fold="1" page="1" pageScale="1" pageWidth="1200" pageHeight="1600" math="0" shadow="0">
      <root>
        <mxCell id="WIyWlLk6GJQsqaUBKTNV-0" />
        <mxCell id="WIyWlLk6GJQsqaUBKTNV-1" parent="WIyWlLk6GJQsqaUBKTNV-0" />
        <mxCell id="zkfFHV4jXpPFQw0GAbJ--0" value="+C1" style="swimlane;fontStyle=2;align=center;verticalAlign=top;childLayout=stackLayout;horizontal=1;startSize=26;horizontalStack=0;resizeParent=1;resizeLast=0;collapsible=1;marginBottom=0;rounded=0;shadow=0;strokeWidth=1;" parent="WIyWlLk6GJQsqaUBKTNV-1" vertex="1">
          <mxGeometry x="40" y="40" width="320" height="758" as="geometry">
            <mxRectangle x="220" y="120" width="160" height="26" as="alternateBounds" />
          </mxGeometry>
        </mxCell>
        <mxCell id="MBHtbq1p86Bb9riJWVz2-1" value="&lt;&lt;const&gt;&gt;-PrivateConstant1:int" style="text;align=left;verticalAlign=top;spacingLeft=4;spacingRight=4;overflow=hidden;rotatable=0;points=[[0,0.5],[1,0.5]];portConstraint=eastwest;" parent="zkfFHV4jXpPFQw0GAbJ--0" vertex="1">
          <mxGeometry y="26" width="320" height="26" as="geometry" />
        </mxCell>
        <mxCell id="p3Ko3bnjveevFl-nV8Y8-1" value="&lt;&lt;const&gt;&gt;-PrivateConstant2:int" style="text;align=left;verticalAlign=top;spacingLeft=4;spacingRight=4;overflow=hidden;rotatable=0;points=[[0,0.5],[1,0.5]];portConstraint=eastwest;" vertex="1" parent="zkfFHV4jXpPFQw0GAbJ--0">
          <mxGeometry y="52" width="320" height="26" as="geometry" />
        </mxCell>
        <mxCell id="zkfFHV4jXpPFQw0GAbJ--1" value="&lt;&lt;const&gt;&gt;+PublicConstant1:int" style="text;align=left;verticalAlign=top;spacingLeft=4;spacingRight=4;overflow=hidden;rotatable=0;points=[[0,0.5],[1,0.5]];portConstraint=eastwest;" parent="zkfFHV4jXpPFQw0GAbJ--0" vertex="1">
          <mxGeometry y="78" width="320" height="26" as="geometry" />
        </mxCell>
        <mxCell id="p3Ko3bnjveevFl-nV8Y8-3" value="&lt;&lt;const&gt;&gt;+PublicConstant2:int" style="text;align=left;verticalAlign=top;spacingLeft=4;spacingRight=4;overflow=hidden;rotatable=0;points=[[0,0.5],[1,0.5]];portConstraint=eastwest;" vertex="1" parent="zkfFHV4jXpPFQw0GAbJ--0">
          <mxGeometry y="104" width="320" height="26" as="geometry" />
        </mxCell>
        <mxCell id="MBHtbq1p86Bb9riJWVz2-0" value="&lt;&lt;const&gt;&gt;#ProtectedConstant1:int" style="text;align=left;verticalAlign=top;spacingLeft=4;spacingRight=4;overflow=hidden;rotatable=0;points=[[0,0.5],[1,0.5]];portConstraint=eastwest;" parent="zkfFHV4jXpPFQw0GAbJ--0" vertex="1">
          <mxGeometry y="130" width="320" height="26" as="geometry" />
        </mxCell>
        <mxCell id="p3Ko3bnjveevFl-nV8Y8-4" value="&lt;&lt;const&gt;&gt;#ProtectedConstant2:int" style="text;align=left;verticalAlign=top;spacingLeft=4;spacingRight=4;overflow=hidden;rotatable=0;points=[[0,0.5],[1,0.5]];portConstraint=eastwest;" vertex="1" parent="zkfFHV4jXpPFQw0GAbJ--0">
          <mxGeometry y="156" width="320" height="26" as="geometry" />
        </mxCell>
        <mxCell id="MBHtbq1p86Bb9riJWVz2-7" value="-privateField1:int" style="text;align=left;verticalAlign=top;spacingLeft=4;spacingRight=4;overflow=hidden;rotatable=0;points=[[0,0.5],[1,0.5]];portConstraint=eastwest;" parent="zkfFHV4jXpPFQw0GAbJ--0" vertex="1">
          <mxGeometry y="182" width="320" height="26" as="geometry" />
        </mxCell>
        <mxCell id="p3Ko3bnjveevFl-nV8Y8-5" value="-privateField2:int" style="text;align=left;verticalAlign=top;spacingLeft=4;spacingRight=4;overflow=hidden;rotatable=0;points=[[0,0.5],[1,0.5]];portConstraint=eastwest;" vertex="1" parent="zkfFHV4jXpPFQw0GAbJ--0">
          <mxGeometry y="208" width="320" height="26" as="geometry" />
        </mxCell>
        <mxCell id="MBHtbq1p86Bb9riJWVz2-5" value="+PublicField1:int" style="text;align=left;verticalAlign=top;spacingLeft=4;spacingRight=4;overflow=hidden;rotatable=0;points=[[0,0.5],[1,0.5]];portConstraint=eastwest;" parent="zkfFHV4jXpPFQw0GAbJ--0" vertex="1">
          <mxGeometry y="234" width="320" height="26" as="geometry" />
        </mxCell>
        <mxCell id="p3Ko3bnjveevFl-nV8Y8-6" value="+PublicField2:int" style="text;align=left;verticalAlign=top;spacingLeft=4;spacingRight=4;overflow=hidden;rotatable=0;points=[[0,0.5],[1,0.5]];portConstraint=eastwest;" vertex="1" parent="zkfFHV4jXpPFQw0GAbJ--0">
          <mxGeometry y="260" width="320" height="26" as="geometry" />
        </mxCell>
        <mxCell id="MBHtbq1p86Bb9riJWVz2-6" value="#ProtectedField1:int" style="text;align=left;verticalAlign=top;spacingLeft=4;spacingRight=4;overflow=hidden;rotatable=0;points=[[0,0.5],[1,0.5]];portConstraint=eastwest;" parent="zkfFHV4jXpPFQw0GAbJ--0" vertex="1">
          <mxGeometry y="286" width="320" height="26" as="geometry" />
        </mxCell>
        <mxCell id="p3Ko3bnjveevFl-nV8Y8-7" value="#ProtectedField2:int" style="text;align=left;verticalAlign=top;spacingLeft=4;spacingRight=4;overflow=hidden;rotatable=0;points=[[0,0.5],[1,0.5]];portConstraint=eastwest;" vertex="1" parent="zkfFHV4jXpPFQw0GAbJ--0">
          <mxGeometry y="312" width="320" height="26" as="geometry" />
        </mxCell>
        <mxCell id="MBHtbq1p86Bb9riJWVz2-16" value="&lt;&lt;getter&gt;&gt;-PrivateProperty:int" style="text;align=left;verticalAlign=top;spacingLeft=4;spacingRight=4;overflow=hidden;rotatable=0;points=[[0,0.5],[1,0.5]];portConstraint=eastwest;" parent="zkfFHV4jXpPFQw0GAbJ--0" vertex="1">
          <mxGeometry y="338" width="320" height="26" as="geometry" />
        </mxCell>
        <mxCell id="MBHtbq1p86Bb9riJWVz2-15" value="&lt;&lt;setter&gt;&gt;-PrivateProperty:int" style="text;align=left;verticalAlign=top;spacingLeft=4;spacingRight=4;overflow=hidden;rotatable=0;points=[[0,0.5],[1,0.5]];portConstraint=eastwest;" parent="zkfFHV4jXpPFQw0GAbJ--0" vertex="1">
          <mxGeometry y="364" width="320" height="26" as="geometry" />
        </mxCell>
        <mxCell id="MBHtbq1p86Bb9riJWVz2-8" value="&lt;&lt;getter&gt;&gt;+PublicProperty:int" style="text;align=left;verticalAlign=top;spacingLeft=4;spacingRight=4;overflow=hidden;rotatable=0;points=[[0,0.5],[1,0.5]];portConstraint=eastwest;" parent="zkfFHV4jXpPFQw0GAbJ--0" vertex="1">
          <mxGeometry y="390" width="320" height="26" as="geometry" />
        </mxCell>
        <mxCell id="MBHtbq1p86Bb9riJWVz2-9" value="&lt;&lt;setter&gt;&gt;+PublicProperty:int" style="text;align=left;verticalAlign=top;spacingLeft=4;spacingRight=4;overflow=hidden;rotatable=0;points=[[0,0.5],[1,0.5]];portConstraint=eastwest;" parent="zkfFHV4jXpPFQw0GAbJ--0" vertex="1">
          <mxGeometry y="416" width="320" height="26" as="geometry" />
        </mxCell>
        <mxCell id="MBHtbq1p86Bb9riJWVz2-18" value="&lt;&lt;getter&gt;&gt;#ProtectedProperty:int" style="text;align=left;verticalAlign=top;spacingLeft=4;spacingRight=4;overflow=hidden;rotatable=0;points=[[0,0.5],[1,0.5]];portConstraint=eastwest;" parent="zkfFHV4jXpPFQw0GAbJ--0" vertex="1">
          <mxGeometry y="442" width="320" height="26" as="geometry" />
        </mxCell>
        <mxCell id="MBHtbq1p86Bb9riJWVz2-17" value="&lt;&lt;setter&gt;&gt;#ProtectedProperty:int" style="text;align=left;verticalAlign=top;spacingLeft=4;spacingRight=4;overflow=hidden;rotatable=0;points=[[0,0.5],[1,0.5]];portConstraint=eastwest;" parent="zkfFHV4jXpPFQw0GAbJ--0" vertex="1">
          <mxGeometry y="468" width="320" height="26" as="geometry" />
        </mxCell>
        <mxCell id="zkfFHV4jXpPFQw0GAbJ--4" value="" style="line;html=1;strokeWidth=1;align=left;verticalAlign=middle;spacingTop=-1;spacingLeft=3;spacingRight=3;rotatable=0;labelPosition=right;points=[];portConstraint=eastwest;" parent="zkfFHV4jXpPFQw0GAbJ--0" vertex="1">
          <mxGeometry y="494" width="320" height="8" as="geometry" />
        </mxCell>
        <mxCell id="MBHtbq1p86Bb9riJWVz2-33" value="&lt;&lt;constructor&gt;&gt;+C1()" style="text;align=left;verticalAlign=top;spacingLeft=4;spacingRight=4;overflow=hidden;rotatable=0;points=[[0,0.5],[1,0.5]];portConstraint=eastwest;" parent="zkfFHV4jXpPFQw0GAbJ--0" vertex="1">
          <mxGeometry y="502" width="320" height="26" as="geometry" />
        </mxCell>
        <mxCell id="MBHtbq1p86Bb9riJWVz2-37" value="&lt;&lt;constructor&gt;&gt;+C1(C1 other)" style="text;align=left;verticalAlign=top;spacingLeft=4;spacingRight=4;overflow=hidden;rotatable=0;points=[[0,0.5],[1,0.5]];portConstraint=eastwest;" parent="zkfFHV4jXpPFQw0GAbJ--0" vertex="1">
          <mxGeometry y="528" width="320" height="26" as="geometry" />
        </mxCell>
        <mxCell id="MBHtbq1p86Bb9riJWVz2-36" value="&lt;&lt;constructor&gt;&gt;+C1(int privateValue, int publicValue,&#xa;int protectedValue)" style="text;align=left;verticalAlign=top;spacingLeft=4;spacingRight=4;overflow=hidden;rotatable=0;points=[[0,0.5],[1,0.5]];portConstraint=eastwest;" parent="zkfFHV4jXpPFQw0GAbJ--0" vertex="1">
          <mxGeometry y="554" width="320" height="36" as="geometry" />
        </mxCell>
        <mxCell id="MBHtbq1p86Bb9riJWVz2-41" value="-PrivateGetAllValues():void" style="text;align=left;verticalAlign=top;spacingLeft=4;spacingRight=4;overflow=hidden;rotatable=0;points=[[0,0.5],[1,0.5]];portConstraint=eastwest;" parent="zkfFHV4jXpPFQw0GAbJ--0" vertex="1">
          <mxGeometry y="590" width="320" height="28" as="geometry" />
        </mxCell>
        <mxCell id="p3Ko3bnjveevFl-nV8Y8-8" value="-PrivateMethod2():void" style="text;align=left;verticalAlign=top;spacingLeft=4;spacingRight=4;overflow=hidden;rotatable=0;points=[[0,0.5],[1,0.5]];portConstraint=eastwest;" vertex="1" parent="zkfFHV4jXpPFQw0GAbJ--0">
          <mxGeometry y="618" width="320" height="28" as="geometry" />
        </mxCell>
        <mxCell id="MBHtbq1p86Bb9riJWVz2-39" value="+PublicGetAllValues():void" style="text;align=left;verticalAlign=top;spacingLeft=4;spacingRight=4;overflow=hidden;rotatable=0;points=[[0,0.5],[1,0.5]];portConstraint=eastwest;" parent="zkfFHV4jXpPFQw0GAbJ--0" vertex="1">
          <mxGeometry y="646" width="320" height="28" as="geometry" />
        </mxCell>
        <mxCell id="p3Ko3bnjveevFl-nV8Y8-9" value="+PublicGetAllValuesFromPrivateMethod():void" style="text;align=left;verticalAlign=top;spacingLeft=4;spacingRight=4;overflow=hidden;rotatable=0;points=[[0,0.5],[1,0.5]];portConstraint=eastwest;" vertex="1" parent="zkfFHV4jXpPFQw0GAbJ--0">
          <mxGeometry y="674" width="320" height="28" as="geometry" />
        </mxCell>
        <mxCell id="MBHtbq1p86Bb9riJWVz2-40" value="#ProtectedFieldsListString():void" style="text;align=left;verticalAlign=top;spacingLeft=4;spacingRight=4;overflow=hidden;rotatable=0;points=[[0,0.5],[1,0.5]];portConstraint=eastwest;" parent="zkfFHV4jXpPFQw0GAbJ--0" vertex="1">
          <mxGeometry y="702" width="320" height="28" as="geometry" />
        </mxCell>
        <mxCell id="p3Ko3bnjveevFl-nV8Y8-10" value="#ProtectedFieldsValuesInt():void" style="text;align=left;verticalAlign=top;spacingLeft=4;spacingRight=4;overflow=hidden;rotatable=0;points=[[0,0.5],[1,0.5]];portConstraint=eastwest;" vertex="1" parent="zkfFHV4jXpPFQw0GAbJ--0">
          <mxGeometry y="730" width="320" height="28" as="geometry" />
        </mxCell>
        <mxCell id="MBHtbq1p86Bb9riJWVz2-43" value="&lt;&lt;interface&gt;&gt;+I1" style="swimlane;fontStyle=2;align=center;verticalAlign=top;childLayout=stackLayout;horizontal=1;startSize=26;horizontalStack=0;resizeParent=1;resizeLast=0;collapsible=1;marginBottom=0;rounded=0;shadow=0;strokeWidth=1;" parent="WIyWlLk6GJQsqaUBKTNV-1" vertex="1">
          <mxGeometry x="860" y="40" width="280" height="200" as="geometry">
            <mxRectangle x="220" y="120" width="160" height="26" as="alternateBounds" />
          </mxGeometry>
        </mxCell>
        <mxCell id="MBHtbq1p86Bb9riJWVz2-45" value="&lt;&lt;getter&gt;&gt;+MyProperty:int" style="text;align=left;verticalAlign=top;spacingLeft=4;spacingRight=4;overflow=hidden;rotatable=0;points=[[0,0.5],[1,0.5]];portConstraint=eastwest;" parent="MBHtbq1p86Bb9riJWVz2-43" vertex="1">
          <mxGeometry y="26" width="280" height="26" as="geometry" />
        </mxCell>
        <mxCell id="MBHtbq1p86Bb9riJWVz2-65" value="&lt;&lt;setter&gt;&gt;+MyProperty:int" style="text;align=left;verticalAlign=top;spacingLeft=4;spacingRight=4;overflow=hidden;rotatable=0;points=[[0,0.5],[1,0.5]];portConstraint=eastwest;" parent="MBHtbq1p86Bb9riJWVz2-43" vertex="1">
          <mxGeometry y="52" width="280" height="26" as="geometry" />
        </mxCell>
        <mxCell id="MBHtbq1p86Bb9riJWVz2-44" value="&lt;&lt;event&gt;&gt;+Event:EventHandler&lt;EventArgs&gt;" style="text;align=left;verticalAlign=top;spacingLeft=4;spacingRight=4;overflow=hidden;rotatable=0;points=[[0,0.5],[1,0.5]];portConstraint=eastwest;" parent="MBHtbq1p86Bb9riJWVz2-43" vertex="1">
          <mxGeometry y="78" width="280" height="26" as="geometry" />
        </mxCell>
        <mxCell id="MBHtbq1p86Bb9riJWVz2-46" value="&lt;&lt;indexer&gt;&gt;&lt;&lt;getter&gt;&gt;+this[int index]:int" style="text;align=left;verticalAlign=top;spacingLeft=4;spacingRight=4;overflow=hidden;rotatable=0;points=[[0,0.5],[1,0.5]];portConstraint=eastwest;" parent="MBHtbq1p86Bb9riJWVz2-43" vertex="1">
          <mxGeometry y="104" width="280" height="26" as="geometry" />
        </mxCell>
        <mxCell id="MBHtbq1p86Bb9riJWVz2-66" value="&lt;&lt;indexer&gt;&gt;&lt;&lt;setter&gt;&gt;+this[int index]:int" style="text;align=left;verticalAlign=top;spacingLeft=4;spacingRight=4;overflow=hidden;rotatable=0;points=[[0,0.5],[1,0.5]];portConstraint=eastwest;" parent="MBHtbq1p86Bb9riJWVz2-43" vertex="1">
          <mxGeometry y="130" width="280" height="26" as="geometry" />
        </mxCell>
        <mxCell id="MBHtbq1p86Bb9riJWVz2-56" value="" style="line;html=1;strokeWidth=1;align=left;verticalAlign=middle;spacingTop=-1;spacingLeft=3;spacingRight=3;rotatable=0;labelPosition=right;points=[];portConstraint=eastwest;" parent="MBHtbq1p86Bb9riJWVz2-43" vertex="1">
          <mxGeometry y="156" width="280" height="8" as="geometry" />
        </mxCell>
        <mxCell id="MBHtbq1p86Bb9riJWVz2-61" value="+MyMethod():void" style="text;align=left;verticalAlign=top;spacingLeft=4;spacingRight=4;overflow=hidden;rotatable=0;points=[[0,0.5],[1,0.5]];portConstraint=eastwest;" parent="MBHtbq1p86Bb9riJWVz2-43" vertex="1">
          <mxGeometry y="164" width="280" height="28" as="geometry" />
        </mxCell>
        <mxCell id="MBHtbq1p86Bb9riJWVz2-90" value="+C3" style="swimlane;fontStyle=2;align=center;verticalAlign=top;childLayout=stackLayout;horizontal=1;startSize=26;horizontalStack=0;resizeParent=1;resizeLast=0;collapsible=1;marginBottom=0;rounded=0;shadow=0;strokeWidth=1;" parent="WIyWlLk6GJQsqaUBKTNV-1" vertex="1">
          <mxGeometry x="860" y="360" width="280" height="200" as="geometry">
            <mxRectangle x="220" y="120" width="160" height="26" as="alternateBounds" />
          </mxGeometry>
        </mxCell>
        <mxCell id="MBHtbq1p86Bb9riJWVz2-97" value="-privateField:int" style="text;align=left;verticalAlign=top;spacingLeft=4;spacingRight=4;overflow=hidden;rotatable=0;points=[[0,0.5],[1,0.5]];portConstraint=eastwest;" parent="MBHtbq1p86Bb9riJWVz2-90" vertex="1">
          <mxGeometry y="26" width="280" height="26" as="geometry" />
        </mxCell>
        <mxCell id="MBHtbq1p86Bb9riJWVz2-101" value="+publicField:int" style="text;align=left;verticalAlign=top;spacingLeft=4;spacingRight=4;overflow=hidden;rotatable=0;points=[[0,0.5],[1,0.5]];portConstraint=eastwest;" parent="MBHtbq1p86Bb9riJWVz2-90" vertex="1">
          <mxGeometry y="52" width="280" height="26" as="geometry" />
        </mxCell>
        <mxCell id="MBHtbq1p86Bb9riJWVz2-98" value="#protectedField:int" style="text;align=left;verticalAlign=top;spacingLeft=4;spacingRight=4;overflow=hidden;rotatable=0;points=[[0,0.5],[1,0.5]];portConstraint=eastwest;" parent="MBHtbq1p86Bb9riJWVz2-90" vertex="1">
          <mxGeometry y="78" width="280" height="26" as="geometry" />
        </mxCell>
        <mxCell id="MBHtbq1p86Bb9riJWVz2-99" value="&lt;&lt;getter&gt;&gt;+Property:int" style="text;align=left;verticalAlign=top;spacingLeft=4;spacingRight=4;overflow=hidden;rotatable=0;points=[[0,0.5],[1,0.5]];portConstraint=eastwest;" parent="MBHtbq1p86Bb9riJWVz2-90" vertex="1">
          <mxGeometry y="104" width="280" height="26" as="geometry" />
        </mxCell>
        <mxCell id="MBHtbq1p86Bb9riJWVz2-100" value="&lt;&lt;setter&gt;&gt;+Property:int" style="text;align=left;verticalAlign=top;spacingLeft=4;spacingRight=4;overflow=hidden;rotatable=0;points=[[0,0.5],[1,0.5]];portConstraint=eastwest;" parent="MBHtbq1p86Bb9riJWVz2-90" vertex="1">
          <mxGeometry y="130" width="280" height="26" as="geometry" />
        </mxCell>
        <mxCell id="MBHtbq1p86Bb9riJWVz2-103" value="" style="line;html=1;strokeWidth=1;align=left;verticalAlign=middle;spacingTop=-1;spacingLeft=3;spacingRight=3;rotatable=0;labelPosition=right;points=[];portConstraint=eastwest;" parent="MBHtbq1p86Bb9riJWVz2-90" vertex="1">
          <mxGeometry y="156" width="280" height="8" as="geometry" />
        </mxCell>
        <mxCell id="MBHtbq1p86Bb9riJWVz2-104" value="&lt;&lt;constructor&gt;&gt;+C3()" style="text;align=left;verticalAlign=top;spacingLeft=4;spacingRight=4;overflow=hidden;rotatable=0;points=[[0,0.5],[1,0.5]];portConstraint=eastwest;" parent="MBHtbq1p86Bb9riJWVz2-90" vertex="1">
          <mxGeometry y="164" width="280" height="26" as="geometry" />
        </mxCell>
        <mxCell id="MBHtbq1p86Bb9riJWVz2-124" style="edgeStyle=orthogonalEdgeStyle;rounded=0;orthogonalLoop=1;jettySize=auto;html=1;endArrow=block;endFill=0;endSize=20;" parent="WIyWlLk6GJQsqaUBKTNV-1" source="MBHtbq1p86Bb9riJWVz2-112" target="MBHtbq1p86Bb9riJWVz2-90" edge="1">
          <mxGeometry relative="1" as="geometry" />
        </mxCell>
        <mxCell id="MBHtbq1p86Bb9riJWVz2-112" value="+C4" style="swimlane;fontStyle=2;align=center;verticalAlign=top;childLayout=stackLayout;horizontal=1;startSize=26;horizontalStack=0;resizeParent=1;resizeLast=0;collapsible=1;marginBottom=0;rounded=0;shadow=0;strokeWidth=1;" parent="WIyWlLk6GJQsqaUBKTNV-1" vertex="1">
          <mxGeometry x="840" y="680" width="320" height="120" as="geometry">
            <mxRectangle x="220" y="120" width="160" height="26" as="alternateBounds" />
          </mxGeometry>
        </mxCell>
        <mxCell id="MBHtbq1p86Bb9riJWVz2-119" value="" style="line;html=1;strokeWidth=1;align=left;verticalAlign=middle;spacingTop=-1;spacingLeft=3;spacingRight=3;rotatable=0;labelPosition=right;points=[];portConstraint=eastwest;" parent="MBHtbq1p86Bb9riJWVz2-112" vertex="1">
          <mxGeometry y="26" width="320" height="8" as="geometry" />
        </mxCell>
        <mxCell id="MBHtbq1p86Bb9riJWVz2-120" value="&lt;&lt;constructor&gt;&gt;+C4()" style="text;align=left;verticalAlign=top;spacingLeft=4;spacingRight=4;overflow=hidden;rotatable=0;points=[[0,0.5],[1,0.5]];portConstraint=eastwest;" parent="MBHtbq1p86Bb9riJWVz2-112" vertex="1">
          <mxGeometry y="34" width="320" height="26" as="geometry" />
        </mxCell>
        <mxCell id="MBHtbq1p86Bb9riJWVz2-122" value="+NewMethod():void" style="text;align=left;verticalAlign=top;spacingLeft=4;spacingRight=4;overflow=hidden;rotatable=0;points=[[0,0.5],[1,0.5]];portConstraint=eastwest;" parent="MBHtbq1p86Bb9riJWVz2-112" vertex="1">
          <mxGeometry y="60" width="320" height="28" as="geometry" />
        </mxCell>
        <mxCell id="7UC5CCCAgvVCLWAKIw7K-26" value="#ProtectedMethod():void" style="text;align=left;verticalAlign=top;spacingLeft=4;spacingRight=4;overflow=hidden;rotatable=0;points=[[0,0.5],[1,0.5]];portConstraint=eastwest;" parent="MBHtbq1p86Bb9riJWVz2-112" vertex="1">
          <mxGeometry y="88" width="320" height="28" as="geometry" />
        </mxCell>
        <mxCell id="7UC5CCCAgvVCLWAKIw7K-25" style="edgeStyle=orthogonalEdgeStyle;rounded=0;orthogonalLoop=1;jettySize=auto;html=1;dashed=1;endArrow=block;endFill=0;endSize=20;exitX=0.5;exitY=0;exitDx=0;exitDy=0;entryX=0.5;entryY=1;entryDx=0;entryDy=0;" parent="WIyWlLk6GJQsqaUBKTNV-1" source="MBHtbq1p86Bb9riJWVz2-90" target="MBHtbq1p86Bb9riJWVz2-43" edge="1">
          <mxGeometry relative="1" as="geometry">
            <mxPoint x="590" y="719" as="sourcePoint" />
            <mxPoint x="1040" y="289" as="targetPoint" />
          </mxGeometry>
        </mxCell>
        <mxCell id="p3Ko3bnjveevFl-nV8Y8-11" value="+C2" style="swimlane;fontStyle=2;align=center;verticalAlign=top;childLayout=stackLayout;horizontal=1;startSize=26;horizontalStack=0;resizeParent=1;resizeLast=0;collapsible=1;marginBottom=0;rounded=0;shadow=0;strokeWidth=1;" vertex="1" parent="WIyWlLk6GJQsqaUBKTNV-1">
          <mxGeometry x="440" y="40" width="320" height="760" as="geometry">
            <mxRectangle x="220" y="120" width="160" height="26" as="alternateBounds" />
          </mxGeometry>
        </mxCell>
        <mxCell id="p3Ko3bnjveevFl-nV8Y8-12" value="&lt;&lt;const&gt;&gt;-PrivateConstant1:int" style="text;align=left;verticalAlign=top;spacingLeft=4;spacingRight=4;overflow=hidden;rotatable=0;points=[[0,0.5],[1,0.5]];portConstraint=eastwest;" vertex="1" parent="p3Ko3bnjveevFl-nV8Y8-11">
          <mxGeometry y="26" width="320" height="26" as="geometry" />
        </mxCell>
        <mxCell id="p3Ko3bnjveevFl-nV8Y8-13" value="&lt;&lt;const&gt;&gt;-PrivateConstant2:int" style="text;align=left;verticalAlign=top;spacingLeft=4;spacingRight=4;overflow=hidden;rotatable=0;points=[[0,0.5],[1,0.5]];portConstraint=eastwest;" vertex="1" parent="p3Ko3bnjveevFl-nV8Y8-11">
          <mxGeometry y="52" width="320" height="26" as="geometry" />
        </mxCell>
        <mxCell id="p3Ko3bnjveevFl-nV8Y8-14" value="&lt;&lt;const&gt;&gt;+PublicConstant1:int" style="text;align=left;verticalAlign=top;spacingLeft=4;spacingRight=4;overflow=hidden;rotatable=0;points=[[0,0.5],[1,0.5]];portConstraint=eastwest;" vertex="1" parent="p3Ko3bnjveevFl-nV8Y8-11">
          <mxGeometry y="78" width="320" height="26" as="geometry" />
        </mxCell>
        <mxCell id="p3Ko3bnjveevFl-nV8Y8-15" value="&lt;&lt;const&gt;&gt;+PublicConstant2:int" style="text;align=left;verticalAlign=top;spacingLeft=4;spacingRight=4;overflow=hidden;rotatable=0;points=[[0,0.5],[1,0.5]];portConstraint=eastwest;" vertex="1" parent="p3Ko3bnjveevFl-nV8Y8-11">
          <mxGeometry y="104" width="320" height="26" as="geometry" />
        </mxCell>
        <mxCell id="p3Ko3bnjveevFl-nV8Y8-16" value="&lt;&lt;const&gt;&gt;#ProtectedConstant1:int" style="text;align=left;verticalAlign=top;spacingLeft=4;spacingRight=4;overflow=hidden;rotatable=0;points=[[0,0.5],[1,0.5]];portConstraint=eastwest;" vertex="1" parent="p3Ko3bnjveevFl-nV8Y8-11">
          <mxGeometry y="130" width="320" height="26" as="geometry" />
        </mxCell>
        <mxCell id="p3Ko3bnjveevFl-nV8Y8-17" value="&lt;&lt;const&gt;&gt;#ProtectedConstant2:int" style="text;align=left;verticalAlign=top;spacingLeft=4;spacingRight=4;overflow=hidden;rotatable=0;points=[[0,0.5],[1,0.5]];portConstraint=eastwest;" vertex="1" parent="p3Ko3bnjveevFl-nV8Y8-11">
          <mxGeometry y="156" width="320" height="26" as="geometry" />
        </mxCell>
        <mxCell id="p3Ko3bnjveevFl-nV8Y8-18" value="-privateField1:int" style="text;align=left;verticalAlign=top;spacingLeft=4;spacingRight=4;overflow=hidden;rotatable=0;points=[[0,0.5],[1,0.5]];portConstraint=eastwest;" vertex="1" parent="p3Ko3bnjveevFl-nV8Y8-11">
          <mxGeometry y="182" width="320" height="26" as="geometry" />
        </mxCell>
        <mxCell id="p3Ko3bnjveevFl-nV8Y8-19" value="-privateField2:int" style="text;align=left;verticalAlign=top;spacingLeft=4;spacingRight=4;overflow=hidden;rotatable=0;points=[[0,0.5],[1,0.5]];portConstraint=eastwest;" vertex="1" parent="p3Ko3bnjveevFl-nV8Y8-11">
          <mxGeometry y="208" width="320" height="26" as="geometry" />
        </mxCell>
        <mxCell id="p3Ko3bnjveevFl-nV8Y8-20" value="+PublicField1:int" style="text;align=left;verticalAlign=top;spacingLeft=4;spacingRight=4;overflow=hidden;rotatable=0;points=[[0,0.5],[1,0.5]];portConstraint=eastwest;" vertex="1" parent="p3Ko3bnjveevFl-nV8Y8-11">
          <mxGeometry y="234" width="320" height="26" as="geometry" />
        </mxCell>
        <mxCell id="p3Ko3bnjveevFl-nV8Y8-21" value="+PublicField2:int" style="text;align=left;verticalAlign=top;spacingLeft=4;spacingRight=4;overflow=hidden;rotatable=0;points=[[0,0.5],[1,0.5]];portConstraint=eastwest;" vertex="1" parent="p3Ko3bnjveevFl-nV8Y8-11">
          <mxGeometry y="260" width="320" height="26" as="geometry" />
        </mxCell>
        <mxCell id="p3Ko3bnjveevFl-nV8Y8-22" value="#ProtectedField1:int" style="text;align=left;verticalAlign=top;spacingLeft=4;spacingRight=4;overflow=hidden;rotatable=0;points=[[0,0.5],[1,0.5]];portConstraint=eastwest;" vertex="1" parent="p3Ko3bnjveevFl-nV8Y8-11">
          <mxGeometry y="286" width="320" height="26" as="geometry" />
        </mxCell>
        <mxCell id="p3Ko3bnjveevFl-nV8Y8-23" value="#ProtectedField2:int" style="text;align=left;verticalAlign=top;spacingLeft=4;spacingRight=4;overflow=hidden;rotatable=0;points=[[0,0.5],[1,0.5]];portConstraint=eastwest;" vertex="1" parent="p3Ko3bnjveevFl-nV8Y8-11">
          <mxGeometry y="312" width="320" height="26" as="geometry" />
        </mxCell>
        <mxCell id="p3Ko3bnjveevFl-nV8Y8-24" value="&lt;&lt;getter&gt;&gt;-PrivateProperty:int" style="text;align=left;verticalAlign=top;spacingLeft=4;spacingRight=4;overflow=hidden;rotatable=0;points=[[0,0.5],[1,0.5]];portConstraint=eastwest;" vertex="1" parent="p3Ko3bnjveevFl-nV8Y8-11">
          <mxGeometry y="338" width="320" height="26" as="geometry" />
        </mxCell>
        <mxCell id="p3Ko3bnjveevFl-nV8Y8-25" value="&lt;&lt;setter&gt;&gt;-PrivateProperty:int" style="text;align=left;verticalAlign=top;spacingLeft=4;spacingRight=4;overflow=hidden;rotatable=0;points=[[0,0.5],[1,0.5]];portConstraint=eastwest;" vertex="1" parent="p3Ko3bnjveevFl-nV8Y8-11">
          <mxGeometry y="364" width="320" height="26" as="geometry" />
        </mxCell>
        <mxCell id="p3Ko3bnjveevFl-nV8Y8-26" value="&lt;&lt;getter&gt;&gt;+PublicProperty:int" style="text;align=left;verticalAlign=top;spacingLeft=4;spacingRight=4;overflow=hidden;rotatable=0;points=[[0,0.5],[1,0.5]];portConstraint=eastwest;" vertex="1" parent="p3Ko3bnjveevFl-nV8Y8-11">
          <mxGeometry y="390" width="320" height="26" as="geometry" />
        </mxCell>
        <mxCell id="p3Ko3bnjveevFl-nV8Y8-27" value="&lt;&lt;setter&gt;&gt;+PublicProperty:int" style="text;align=left;verticalAlign=top;spacingLeft=4;spacingRight=4;overflow=hidden;rotatable=0;points=[[0,0.5],[1,0.5]];portConstraint=eastwest;" vertex="1" parent="p3Ko3bnjveevFl-nV8Y8-11">
          <mxGeometry y="416" width="320" height="26" as="geometry" />
        </mxCell>
        <mxCell id="p3Ko3bnjveevFl-nV8Y8-28" value="&lt;&lt;getter&gt;&gt;#ProtectedProperty:int" style="text;align=left;verticalAlign=top;spacingLeft=4;spacingRight=4;overflow=hidden;rotatable=0;points=[[0,0.5],[1,0.5]];portConstraint=eastwest;" vertex="1" parent="p3Ko3bnjveevFl-nV8Y8-11">
          <mxGeometry y="442" width="320" height="26" as="geometry" />
        </mxCell>
        <mxCell id="p3Ko3bnjveevFl-nV8Y8-29" value="&lt;&lt;setter&gt;&gt;#ProtectedProperty:int" style="text;align=left;verticalAlign=top;spacingLeft=4;spacingRight=4;overflow=hidden;rotatable=0;points=[[0,0.5],[1,0.5]];portConstraint=eastwest;" vertex="1" parent="p3Ko3bnjveevFl-nV8Y8-11">
          <mxGeometry y="468" width="320" height="26" as="geometry" />
        </mxCell>
        <mxCell id="p3Ko3bnjveevFl-nV8Y8-30" value="" style="line;html=1;strokeWidth=1;align=left;verticalAlign=middle;spacingTop=-1;spacingLeft=3;spacingRight=3;rotatable=0;labelPosition=right;points=[];portConstraint=eastwest;" vertex="1" parent="p3Ko3bnjveevFl-nV8Y8-11">
          <mxGeometry y="494" width="320" height="8" as="geometry" />
        </mxCell>
        <mxCell id="p3Ko3bnjveevFl-nV8Y8-31" value="&lt;&lt;constructor&gt;&gt;+C2()" style="text;align=left;verticalAlign=top;spacingLeft=4;spacingRight=4;overflow=hidden;rotatable=0;points=[[0,0.5],[1,0.5]];portConstraint=eastwest;" vertex="1" parent="p3Ko3bnjveevFl-nV8Y8-11">
          <mxGeometry y="502" width="320" height="26" as="geometry" />
        </mxCell>
        <mxCell id="p3Ko3bnjveevFl-nV8Y8-32" value="&lt;&lt;constructor&gt;&gt;+C2(C2 other)" style="text;align=left;verticalAlign=top;spacingLeft=4;spacingRight=4;overflow=hidden;rotatable=0;points=[[0,0.5],[1,0.5]];portConstraint=eastwest;" vertex="1" parent="p3Ko3bnjveevFl-nV8Y8-11">
          <mxGeometry y="528" width="320" height="26" as="geometry" />
        </mxCell>
        <mxCell id="p3Ko3bnjveevFl-nV8Y8-33" value="&lt;&lt;constructor&gt;&gt;+C2(int privateValue, int publicValue,&#xa;int protectedValue)" style="text;align=left;verticalAlign=top;spacingLeft=4;spacingRight=4;overflow=hidden;rotatable=0;points=[[0,0.5],[1,0.5]];portConstraint=eastwest;" vertex="1" parent="p3Ko3bnjveevFl-nV8Y8-11">
          <mxGeometry y="554" width="320" height="36" as="geometry" />
        </mxCell>
        <mxCell id="p3Ko3bnjveevFl-nV8Y8-34" value="-PrivateGetAllValues():void" style="text;align=left;verticalAlign=top;spacingLeft=4;spacingRight=4;overflow=hidden;rotatable=0;points=[[0,0.5],[1,0.5]];portConstraint=eastwest;" vertex="1" parent="p3Ko3bnjveevFl-nV8Y8-11">
          <mxGeometry y="590" width="320" height="28" as="geometry" />
        </mxCell>
        <mxCell id="p3Ko3bnjveevFl-nV8Y8-35" value="-PrivateMethod2():void" style="text;align=left;verticalAlign=top;spacingLeft=4;spacingRight=4;overflow=hidden;rotatable=0;points=[[0,0.5],[1,0.5]];portConstraint=eastwest;" vertex="1" parent="p3Ko3bnjveevFl-nV8Y8-11">
          <mxGeometry y="618" width="320" height="28" as="geometry" />
        </mxCell>
        <mxCell id="p3Ko3bnjveevFl-nV8Y8-36" value="+PublicGetAllValues():void" style="text;align=left;verticalAlign=top;spacingLeft=4;spacingRight=4;overflow=hidden;rotatable=0;points=[[0,0.5],[1,0.5]];portConstraint=eastwest;" vertex="1" parent="p3Ko3bnjveevFl-nV8Y8-11">
          <mxGeometry y="646" width="320" height="28" as="geometry" />
        </mxCell>
        <mxCell id="p3Ko3bnjveevFl-nV8Y8-37" value="+PublicGetAllValuesFromPrivateMethod():void" style="text;align=left;verticalAlign=top;spacingLeft=4;spacingRight=4;overflow=hidden;rotatable=0;points=[[0,0.5],[1,0.5]];portConstraint=eastwest;" vertex="1" parent="p3Ko3bnjveevFl-nV8Y8-11">
          <mxGeometry y="674" width="320" height="28" as="geometry" />
        </mxCell>
        <mxCell id="p3Ko3bnjveevFl-nV8Y8-38" value="#ProtectedFieldsListString():void" style="text;align=left;verticalAlign=top;spacingLeft=4;spacingRight=4;overflow=hidden;rotatable=0;points=[[0,0.5],[1,0.5]];portConstraint=eastwest;" vertex="1" parent="p3Ko3bnjveevFl-nV8Y8-11">
          <mxGeometry y="702" width="320" height="28" as="geometry" />
        </mxCell>
        <mxCell id="p3Ko3bnjveevFl-nV8Y8-39" value="#ProtectedFieldsValuesInt():void" style="text;align=left;verticalAlign=top;spacingLeft=4;spacingRight=4;overflow=hidden;rotatable=0;points=[[0,0.5],[1,0.5]];portConstraint=eastwest;" vertex="1" parent="p3Ko3bnjveevFl-nV8Y8-11">
          <mxGeometry y="730" width="320" height="28" as="geometry" />
        </mxCell>
        <mxCell id="p3Ko3bnjveevFl-nV8Y8-48" style="edgeStyle=orthogonalEdgeStyle;rounded=0;orthogonalLoop=1;jettySize=auto;html=1;exitX=1;exitY=0.5;exitDx=0;exitDy=0;entryX=0;entryY=0.5;entryDx=0;entryDy=0;endArrow=block;endFill=0;endSize=20;dashed=1;" edge="1" parent="WIyWlLk6GJQsqaUBKTNV-1" source="p3Ko3bnjveevFl-nV8Y8-15" target="MBHtbq1p86Bb9riJWVz2-46">
          <mxGeometry relative="1" as="geometry" />
        </mxCell>
      </root>
    </mxGraphModel>
  </diagram>
</mxfile>
